<mxfile host="app.diagrams.net" modified="2021-02-19T00:50:07.464Z" agent="5.0 (Windows NT 10.0; Win64; x64) AppleWebKit/537.36 (KHTML, like Gecko) Chrome/87.0.4280.141 Safari/537.36 OPR/73.0.3856.400" etag="pWmWPoCcM9QqWSIG32Un" version="14.4.2" type="github">
  <diagram id="prtHgNgQTEPvFCAcTncT" name="Page-1">
    <mxGraphModel dx="1161" dy="668" grid="1" gridSize="10" guides="1" tooltips="1" connect="1" arrows="1" fold="1" page="1" pageScale="1" pageWidth="900" pageHeight="1600" math="0" shadow="0">
      <root>
        <mxCell id="0" />
        <mxCell id="1" parent="0" />
        <mxCell id="nAKAc1gOHnrUz62A7dBQ-1" value="Karten:&lt;br&gt;Schwarze Karte verteilen&lt;br&gt;Rote Karte selber" style="rounded=0;whiteSpace=wrap;html=1;" vertex="1" parent="1">
          <mxGeometry x="70" y="80" width="160" height="80" as="geometry" />
        </mxCell>
        <mxCell id="nAKAc1gOHnrUz62A7dBQ-2" value="Selber 5" style="rounded=0;whiteSpace=wrap;html=1;" vertex="1" parent="1">
          <mxGeometry x="670" y="80" width="160" height="80" as="geometry" />
        </mxCell>
        <mxCell id="nAKAc1gOHnrUz62A7dBQ-3" value="Selber 3" style="rounded=0;whiteSpace=wrap;html=1;" vertex="1" parent="1">
          <mxGeometry x="370" y="80" width="160" height="80" as="geometry" />
        </mxCell>
        <mxCell id="nAKAc1gOHnrUz62A7dBQ-4" value="Würfeln:&lt;br&gt;Gerade trinken&lt;br&gt;Ungerade andere" style="rounded=0;whiteSpace=wrap;html=1;" vertex="1" parent="1">
          <mxGeometry x="70" y="160" width="160" height="80" as="geometry" />
        </mxCell>
        <mxCell id="nAKAc1gOHnrUz62A7dBQ-5" value="Alle trinken" style="rounded=0;whiteSpace=wrap;html=1;" vertex="1" parent="1">
          <mxGeometry x="70" y="240" width="160" height="80" as="geometry" />
        </mxCell>
        <mxCell id="nAKAc1gOHnrUz62A7dBQ-6" value="Münzwurf:&lt;br&gt;Kopf selber&lt;br&gt;Zahl andere" style="rounded=0;whiteSpace=wrap;html=1;" vertex="1" parent="1">
          <mxGeometry x="70" y="320" width="160" height="80" as="geometry" />
        </mxCell>
        <mxCell id="nAKAc1gOHnrUz62A7dBQ-7" value="Uhrzeit Minuten&lt;br&gt;Gerade selber 3&lt;br&gt;Ungerade andere 2" style="rounded=0;whiteSpace=wrap;html=1;" vertex="1" parent="1">
          <mxGeometry x="70" y="400" width="160" height="80" as="geometry" />
        </mxCell>
        <mxCell id="nAKAc1gOHnrUz62A7dBQ-8" value="Regel" style="rounded=0;whiteSpace=wrap;html=1;" vertex="1" parent="1">
          <mxGeometry x="70" y="480" width="160" height="80" as="geometry" />
        </mxCell>
        <mxCell id="nAKAc1gOHnrUz62A7dBQ-9" value="Rechter Nachbar 2" style="rounded=0;whiteSpace=wrap;html=1;" vertex="1" parent="1">
          <mxGeometry x="370" y="160" width="160" height="80" as="geometry" />
        </mxCell>
        <mxCell id="nAKAc1gOHnrUz62A7dBQ-10" value="Linker Nachbar 2" style="rounded=0;whiteSpace=wrap;html=1;" vertex="1" parent="1">
          <mxGeometry x="370" y="240" width="160" height="80" as="geometry" />
        </mxCell>
        <mxCell id="nAKAc1gOHnrUz62A7dBQ-11" value="Münzwurf:&lt;br&gt;Kopf selber&lt;br&gt;Zahl alle" style="rounded=0;whiteSpace=wrap;html=1;" vertex="1" parent="1">
          <mxGeometry x="370" y="320" width="160" height="80" as="geometry" />
        </mxCell>
        <mxCell id="nAKAc1gOHnrUz62A7dBQ-12" value="Kategorie&lt;br&gt;Verlierer 3" style="rounded=0;whiteSpace=wrap;html=1;" vertex="1" parent="1">
          <mxGeometry x="370" y="400" width="160" height="80" as="geometry" />
        </mxCell>
        <mxCell id="nAKAc1gOHnrUz62A7dBQ-13" value="Selber 5" style="rounded=0;whiteSpace=wrap;html=1;" vertex="1" parent="1">
          <mxGeometry x="370" y="480" width="160" height="80" as="geometry" />
        </mxCell>
        <mxCell id="nAKAc1gOHnrUz62A7dBQ-14" value="Verteile 5" style="rounded=0;whiteSpace=wrap;html=1;" vertex="1" parent="1">
          <mxGeometry x="670" y="160" width="160" height="80" as="geometry" />
        </mxCell>
        <mxCell id="nAKAc1gOHnrUz62A7dBQ-15" value="Selber 10" style="rounded=0;whiteSpace=wrap;html=1;" vertex="1" parent="1">
          <mxGeometry x="670" y="240" width="160" height="80" as="geometry" />
        </mxCell>
        <mxCell id="nAKAc1gOHnrUz62A7dBQ-16" value="Würfeln für Anzahl&lt;br&gt;Kopf selber&lt;br&gt;Zahl verteilen" style="rounded=0;whiteSpace=wrap;html=1;" vertex="1" parent="1">
          <mxGeometry x="670" y="320" width="160" height="80" as="geometry" />
        </mxCell>
        <mxCell id="nAKAc1gOHnrUz62A7dBQ-17" value="Verteile 10" style="rounded=0;whiteSpace=wrap;html=1;" vertex="1" parent="1">
          <mxGeometry x="670" y="400" width="160" height="80" as="geometry" />
        </mxCell>
        <mxCell id="nAKAc1gOHnrUz62A7dBQ-18" value="Selber 8" style="rounded=0;whiteSpace=wrap;html=1;" vertex="1" parent="1">
          <mxGeometry x="670" y="480" width="160" height="80" as="geometry" />
        </mxCell>
        <mxCell id="nAKAc1gOHnrUz62A7dBQ-19" value="3" style="rounded=0;whiteSpace=wrap;html=1;" vertex="1" parent="1">
          <mxGeometry x="280" y="600" width="340" height="40" as="geometry" />
        </mxCell>
        <mxCell id="nAKAc1gOHnrUz62A7dBQ-21" value="5" style="rounded=0;whiteSpace=wrap;html=1;" vertex="1" parent="1">
          <mxGeometry x="280" y="640" width="340" height="40" as="geometry" />
        </mxCell>
        <mxCell id="nAKAc1gOHnrUz62A7dBQ-22" value="1" style="rounded=0;whiteSpace=wrap;html=1;" vertex="1" parent="1">
          <mxGeometry x="280" y="680" width="340" height="40" as="geometry" />
        </mxCell>
        <mxCell id="nAKAc1gOHnrUz62A7dBQ-23" value="8" style="rounded=0;whiteSpace=wrap;html=1;" vertex="1" parent="1">
          <mxGeometry x="280" y="720" width="340" height="40" as="geometry" />
        </mxCell>
        <mxCell id="nAKAc1gOHnrUz62A7dBQ-24" value="5" style="rounded=0;whiteSpace=wrap;html=1;" vertex="1" parent="1">
          <mxGeometry x="280" y="760" width="340" height="40" as="geometry" />
        </mxCell>
        <mxCell id="nAKAc1gOHnrUz62A7dBQ-25" value="+5+" style="rounded=0;whiteSpace=wrap;html=1;" vertex="1" parent="1">
          <mxGeometry x="280" y="800" width="340" height="40" as="geometry" />
        </mxCell>
        <mxCell id="nAKAc1gOHnrUz62A7dBQ-26" value="3" style="rounded=0;whiteSpace=wrap;html=1;" vertex="1" parent="1">
          <mxGeometry x="280" y="840" width="340" height="40" as="geometry" />
        </mxCell>
        <mxCell id="nAKAc1gOHnrUz62A7dBQ-27" value="10" style="rounded=0;whiteSpace=wrap;html=1;" vertex="1" parent="1">
          <mxGeometry x="280" y="880" width="340" height="40" as="geometry" />
        </mxCell>
        <mxCell id="nAKAc1gOHnrUz62A7dBQ-28" value="6" style="rounded=0;whiteSpace=wrap;html=1;" vertex="1" parent="1">
          <mxGeometry x="280" y="920" width="340" height="40" as="geometry" />
        </mxCell>
        <mxCell id="nAKAc1gOHnrUz62A7dBQ-29" value="10 selber" style="rounded=0;whiteSpace=wrap;html=1;" vertex="1" parent="1">
          <mxGeometry x="120" y="1000" width="240" height="80" as="geometry" />
        </mxCell>
        <mxCell id="nAKAc1gOHnrUz62A7dBQ-30" value="Wasserfall" style="rounded=0;whiteSpace=wrap;html=1;" vertex="1" parent="1">
          <mxGeometry x="120" y="1080" width="240" height="80" as="geometry" />
        </mxCell>
        <mxCell id="nAKAc1gOHnrUz62A7dBQ-31" value="&lt;span&gt;Münzwurf:&lt;/span&gt;&lt;br&gt;&lt;span&gt;Kopf nach rechts weiter&lt;/span&gt;&lt;br&gt;&lt;span&gt;Zahl geradeaus&lt;/span&gt;" style="rounded=0;whiteSpace=wrap;html=1;" vertex="1" parent="1">
          <mxGeometry x="120" y="1160" width="240" height="80" as="geometry" />
        </mxCell>
        <mxCell id="nAKAc1gOHnrUz62A7dBQ-32" value="3 zurück" style="rounded=0;whiteSpace=wrap;html=1;" vertex="1" parent="1">
          <mxGeometry x="120" y="1240" width="240" height="80" as="geometry" />
        </mxCell>
        <mxCell id="nAKAc1gOHnrUz62A7dBQ-33" value="Würfelaugenzahl verteilen" style="rounded=0;whiteSpace=wrap;html=1;" vertex="1" parent="1">
          <mxGeometry x="120" y="1320" width="240" height="80" as="geometry" />
        </mxCell>
        <mxCell id="nAKAc1gOHnrUz62A7dBQ-34" value="suche jemanden aus, wer zuerst blinzelt 3 trinken" style="rounded=0;whiteSpace=wrap;html=1;" vertex="1" parent="1">
          <mxGeometry x="120" y="1400" width="240" height="80" as="geometry" />
        </mxCell>
        <mxCell id="nAKAc1gOHnrUz62A7dBQ-35" value="&lt;span&gt;Ex und zum Start&lt;/span&gt;" style="rounded=0;whiteSpace=wrap;html=1;" vertex="1" parent="1">
          <mxGeometry y="1480" width="240" height="80" as="geometry" />
        </mxCell>
        <mxCell id="nAKAc1gOHnrUz62A7dBQ-36" value="Alle trinken 5" style="rounded=0;whiteSpace=wrap;html=1;" vertex="1" parent="1">
          <mxGeometry x="540" y="1000" width="240" height="80" as="geometry" />
        </mxCell>
        <mxCell id="nAKAc1gOHnrUz62A7dBQ-37" value="Pantomime" style="rounded=0;whiteSpace=wrap;html=1;" vertex="1" parent="1">
          <mxGeometry x="540" y="1080" width="240" height="80" as="geometry" />
        </mxCell>
        <mxCell id="nAKAc1gOHnrUz62A7dBQ-38" value="Münzwurf:&lt;br&gt;Kopf nach links weiter&lt;br&gt;Zahl geradeaus" style="rounded=0;whiteSpace=wrap;html=1;" vertex="1" parent="1">
          <mxGeometry x="540" y="1160" width="240" height="80" as="geometry" />
        </mxCell>
        <mxCell id="nAKAc1gOHnrUz62A7dBQ-39" value="10 selber" style="rounded=0;whiteSpace=wrap;html=1;" vertex="1" parent="1">
          <mxGeometry x="540" y="1240" width="240" height="80" as="geometry" />
        </mxCell>
        <mxCell id="nAKAc1gOHnrUz62A7dBQ-40" value="1 zurück" style="rounded=0;whiteSpace=wrap;html=1;" vertex="1" parent="1">
          <mxGeometry x="540" y="1320" width="240" height="80" as="geometry" />
        </mxCell>
        <mxCell id="nAKAc1gOHnrUz62A7dBQ-41" value="3-mal Würfeln, für jede 6 10 Schlücke verteilen Rest selbst" style="rounded=0;whiteSpace=wrap;html=1;" vertex="1" parent="1">
          <mxGeometry x="540" y="1400" width="240" height="80" as="geometry" />
        </mxCell>
        <mxCell id="nAKAc1gOHnrUz62A7dBQ-42" value="Ex und zum Start" style="rounded=0;whiteSpace=wrap;html=1;" vertex="1" parent="1">
          <mxGeometry x="660" y="1480" width="240" height="80" as="geometry" />
        </mxCell>
        <mxCell id="nAKAc1gOHnrUz62A7dBQ-43" value="" style="triangle;whiteSpace=wrap;html=1;" vertex="1" parent="1">
          <mxGeometry x="360" y="1160" width="90" height="80" as="geometry" />
        </mxCell>
        <mxCell id="nAKAc1gOHnrUz62A7dBQ-44" value="" style="triangle;whiteSpace=wrap;html=1;rotation=-180;" vertex="1" parent="1">
          <mxGeometry x="450" y="1160" width="90" height="80" as="geometry" />
        </mxCell>
      </root>
    </mxGraphModel>
  </diagram>
</mxfile>
